<?xml version="1.0" encoding="UTF-8" standalone="no"?>
<!-- Created with Inkscape (http://www.inkscape.org/) -->

<svg
   width="36.433594mm"
   height="36.5mm"
   viewBox="0 0 36.433594 36.5"
   version="1.1"
   id="svg5"
   xml:space="preserve"
   inkscape:version="1.2.2 (b0a8486541, 2022-12-01)"
   sodipodi:docname="iconos.svg"
   inkscape:export-filename="iconos.png"
   inkscape:export-xdpi="22.309082"
   inkscape:export-ydpi="22.309082"
   xmlns:inkscape="http://www.inkscape.org/namespaces/inkscape"
   xmlns:sodipodi="http://sodipodi.sourceforge.net/DTD/sodipodi-0.dtd"
   xmlns="http://www.w3.org/2000/svg"
   xmlns:svg="http://www.w3.org/2000/svg"><sodipodi:namedview
     id="namedview7"
     pagecolor="#ffffff"
     bordercolor="#666666"
     borderopacity="1.0"
     inkscape:showpageshadow="2"
     inkscape:pageopacity="0.0"
     inkscape:pagecheckerboard="0"
     inkscape:deskcolor="#d1d1d1"
     inkscape:document-units="mm"
     showgrid="false"
     inkscape:zoom="1.0365397"
     inkscape:cx="108.53419"
     inkscape:cy="54.990657"
     inkscape:window-width="1312"
     inkscape:window-height="699"
     inkscape:window-x="363"
     inkscape:window-y="1112"
     inkscape:window-maximized="1"
     inkscape:current-layer="layer1" /><defs
     id="defs2" /><g
     inkscape:label="Capa 1"
     inkscape:groupmode="layer"
     id="layer1"
     transform="translate(-21.427591,-109.71863)"><path
       style="fill:#744fa8;stroke-width:1;fill-opacity:1"
       d="m 39.040272,139.80901 c -0.490321,-0.76398 -1.76793,-2.74492 -2.839131,-4.40209 -1.0712,-1.65717 -1.850939,-3.10915 -1.732754,-3.22662 0.118186,-0.11747 0.919852,-0.24989 1.78148,-0.29426 0.956442,-0.0493 1.609088,-0.20948 1.675695,-0.4114 0.0848,-0.25708 -1.050623,-0.33073 -5.098486,-0.33073 -5.894557,0 -6.570768,-0.16144 -7.598489,-1.81411 -0.525294,-0.84471 -0.599483,-1.3136 -0.599483,-3.78888 0,-3.13614 0.238625,-3.72788 1.981684,-4.9142 l 0.874696,-0.59531 h 12.157865 c 13.599515,0 13.399845,-0.0253 14.443465,1.83154 0.48257,0.85863 0.5725,1.44101 0.5725,3.70773 0,2.98191 -0.25022,3.74592 -1.5983,4.88025 -0.82141,0.69118 -0.83591,0.69298 -5.565753,0.69298 -4.038899,0 -4.742199,0.0589 -4.742199,0.39687 0,0.31208 0.367477,0.39688 1.719792,0.39688 1.795944,0 1.952646,0.12672 1.412012,1.14187 -1.006581,1.89006 -5.301419,8.11855 -5.598124,8.11855 -0.195237,0 -0.756149,-0.62508 -1.24647,-1.38907 z M 31.967534,128.2909 c 0.322796,-2.252 1.652329,-4.32482 3.33067,-5.19272 1.252966,-0.64794 3.737056,-0.55782 4.806688,0.17438 1.183895,0.81041 2.135805,2.74074 2.312504,4.68941 l 0.144579,1.59444 h 4.605485 c 4.537004,0 4.615144,-0.01 5.254924,-0.64943 0.60602,-0.60603 0.64943,-0.83283 0.64943,-3.39346 0,-2.60744 -0.034,-2.77597 -0.68256,-3.38547 l -0.68255,-0.64143 -11.810945,-0.0742 c -8.164226,-0.0513 -12.028399,0.0159 -12.515235,0.21754 -1.231253,0.51 -1.648584,1.69731 -1.511905,4.30137 0.173246,3.30077 0.818233,3.90798 4.049312,3.81219 l 1.849244,-0.0548 z m -3.615364,-1.7961 c -0.803886,-0.80388 -0.221256,-2.23006 0.911038,-2.23006 0.4568,0 1.319021,0.90325 1.319021,1.38179 0,0.35064 -1.037881,1.26405 -1.43631,1.26405 -0.207887,0 -0.565074,-0.1871 -0.793749,-0.41578 z m 16.161692,-0.0681 c -0.569132,-0.62888 -0.554419,-1.18075 0.04597,-1.72409 0.982893,-0.88951 2.161979,-0.38305 2.161979,0.92864 0,1.18819 -1.397037,1.6915 -2.207949,0.79545 z m 4.432582,-0.1776 c -0.401486,-0.61274 -0.401486,-0.71018 0,-1.32292 0.51527,-0.78641 1.47552,-0.86763 2.09999,-0.1776 0.56913,0.62888 0.55441,1.18075 -0.046,1.72409 -0.69872,0.63234 -1.55422,0.53922 -2.05401,-0.22357 z m -10.955882,2.51889 c 0,-1.29877 -0.772332,-2.90031 -1.484902,-3.07915 -1.529604,-0.38391 -2.455606,0.53796 -2.888254,2.87536 l -0.183652,0.99219 h 2.278404 2.278404 z"
       id="path302"
       sodipodi:nodetypes="ssscssssscsssssssssssssscscsscsssscssssssssssssssssssscccs"
       inkscape:export-filename="favicon.png"
       inkscape:export-xdpi="22.309082"
       inkscape:export-ydpi="22.309082" /><path
       style="color:#000000;fill:#744fa8;stroke-linecap:round;stroke-linejoin:round;-inkscape-stroke:none;fill-opacity:1"
       d="m 30.105325,109.71863 c -4.792265,0 -8.677734,3.88547 -8.677734,8.67773 v 19.14453 c 0,4.79227 3.885469,8.67774 8.677734,8.67774 H 49.18345 c 4.792265,0 8.677734,-3.88547 8.677734,-8.67774 v -19.14453 c 0,-4.79226 -3.885469,-8.67773 -8.677734,-8.67773 z m 0,1.80078 H 49.18345 c 3.826201,0 6.876953,3.05075 6.876953,6.87695 v 19.14453 c 0,3.82621 -3.050752,6.87891 -6.876953,6.87891 H 30.105325 c -3.826201,0 -6.878906,-3.0527 -6.878906,-6.87891 v -19.14453 c 0,-3.8262 3.052705,-6.87695 6.878906,-6.87695 z"
       id="rect452" /></g></svg>
